<?xml version="1.0" encoding="iso-8859-1"?>
<!-- Generator: Adobe Illustrator 19.0.0, SVG Export Plug-In . SVG Version: 6.00 Build 0)  -->
<svg version="1.1" id="Layer_1" xmlns="http://www.w3.org/2000/svg" xmlns:xlink="http://www.w3.org/1999/xlink" x="0px" y="0px"
	 viewBox="0 0 512 512" style="enable-background:new 0 0 512 512;" xml:space="preserve">
<path style="fill:#fff;" d="M512,256c0,33.654-6.495,65.786-18.298,95.21c-0.744,1.865-1.51,3.72-2.298,5.552
	c-2.176,5.096-4.519,10.093-7.017,15.011c-1.188,2.332-2.398,4.63-3.653,6.917c-4.13,7.55-8.627,14.867-13.468,21.929
	c-46.134,67.263-123.545,111.376-211.26,111.376C114.618,511.994,0,397.388,0,256c0-65.775,24.816-125.765,65.586-171.1
	c6.865-7.639,14.202-14.838,21.929-21.599v-0.019h0.021c9.101-7.962,18.751-15.308,28.925-21.929
	c40.138-26.159,88.07-41.348,139.545-41.348c51.463,0,99.395,15.189,139.533,41.348c10.182,6.617,19.864,13.957,28.968,21.929
	c2.076,1.81,4.119,3.664,6.14,5.552C480.7,115.545,512,182.12,512,256z"/>
<path style="fill:#F0A037;" d="M512,256c0,33.654-6.495,65.786-18.298,95.21c-0.744,1.865-1.51,3.72-2.298,5.552
	c-2.176,5.096-4.519,10.093-7.017,15.011c-1.188,2.332-2.398,4.63-3.653,6.917H65.586V62.5c0-11.678,9.468-21.146,21.146-21.146
	h308.807c10.182,6.617,19.864,13.957,28.968,21.929c2.076,1.81,4.119,3.664,6.14,5.552C480.7,115.545,512,182.12,512,256z"/>
<path style="fill:#314668;" d="M512,256c0,33.654-6.495,65.786-18.298,95.21c-0.744,1.865-1.51,3.72-2.298,5.552H87.515V63.282
	h336.992c2.076,1.81,4.119,3.664,6.14,5.552C480.7,115.545,512,182.12,512,256z"/>
<path style="fill:#42577F;" d="M512,256c0,33.654-6.495,65.786-18.298,95.21H93.067V68.834h337.58C480.7,115.545,512,182.12,512,256
	z"/>
<path style="fill:#AA5013;" d="M484.386,371.773c-1.188,2.332-2.398,4.63-3.653,6.917c-4.13,7.55-8.627,14.867-13.468,21.929H46.711
	v-28.846H484.386z"/>
<g>
	<path style="fill:#E9E4D8;" d="M350.485,323.838L350.485,323.838c2.494-2.494,6.535-2.494,9.029,0l23.553,23.553
		c2.494,2.494,2.494,6.535,0,9.029l0,0c-2.494,2.494-6.535,2.494-9.029,0l-23.553-23.553
		C347.992,330.373,347.992,326.331,350.485,323.838z"/>
	<path style="fill:#E9E4D8;" d="M375.76,319.154L375.76,319.154c3.38-1.004,6.934,0.923,7.938,4.302l9.484,31.93
		c1.004,3.38-0.923,6.934-4.302,7.938l0,0c-3.38,1.004-6.934-0.923-7.938-4.302l-9.484-31.93
		C370.454,323.712,372.38,320.157,375.76,319.154z"/>
	<path style="fill:#E9E4D8;" d="M430.81,334.941L430.81,334.941c-2.494-2.494-6.535-2.494-9.029,0l-23.553,23.553
		c-2.494,2.494-2.494,6.535,0,9.029l0,0c2.494,2.494,6.535,2.494,9.029,0l23.553-23.553
		C433.304,341.477,433.304,337.434,430.81,334.941z"/>
</g>
<path style="fill:#EB305B;" d="M446.719,342.349h-98.263v18.205c0,6.196,5.022,11.219,11.219,11.219h75.827
	c6.196,0,11.219-5.022,11.219-11.219v-18.205H446.719z"/>
<path style="fill:#DB2A58;" d="M360.669,360.555V342.35h-12.213v18.205c0,6.196,5.022,11.219,11.219,11.219h12.213
	C365.691,371.773,360.669,366.751,360.669,360.555z"/>
<g>
	<path style="fill:#E9E4D8;" d="M476.914,162.274l-11.563-15.136c-2.173-2.845-6.086-3.776-9.309-2.215l-29.816,14.446
		c-6.058,2.937-13.423,1.182-17.509-4.168l-6.157-8.062c-2.173-2.845-6.087-3.777-9.31-2.216l-29.812,14.445
		c-6.058,2.936-13.422,1.185-17.51-4.167l-6.157-8.062c-2.172-2.845-6.089-3.776-9.309-2.216l-29.809,14.444
		c-6.06,2.938-13.424,1.184-17.511-4.169l-6.152-8.058c-2.173-2.846-6.088-3.778-9.31-2.216l-29.802,14.442
		c-6.06,2.937-13.426,1.184-17.512-4.17l-6.149-8.054c-2.173-2.846-6.089-3.778-9.31-2.217l-29.806,14.443
		c-6.058,2.936-13.424,1.184-17.511-4.168l-11.554-15.132l5.295-4.043l11.554,15.132c2.174,2.846,6.09,3.777,9.311,2.216
		l29.805-14.443c6.06-2.938,13.426-1.182,17.511,4.17l6.149,8.054c2.172,2.847,6.089,3.781,9.311,2.217l29.802-14.442
		c6.06-2.938,13.425-1.184,17.511,4.169l6.152,8.058c2.174,2.846,6.088,3.776,9.311,2.216l29.809-14.444
		c6.059-2.936,13.424-1.184,17.51,4.167l6.157,8.062c2.174,2.846,6.09,3.777,9.309,2.216l29.812-14.445
		c6.059-2.936,13.423-1.182,17.51,4.168l6.157,8.062c2.173,2.846,6.088,3.777,9.309,2.216l29.816-14.446
		c6.058-2.936,13.422-1.182,17.507,4.166l11.563,15.136L476.914,162.274z"/>
	<path style="fill:#E9E4D8;" d="M476.914,213.348l-11.563-15.136c-2.173-2.845-6.086-3.775-9.309-2.215l-29.816,14.446
		c-6.058,2.936-13.423,1.182-17.509-4.168l-6.157-8.062c-2.173-2.845-6.087-3.777-9.31-2.216l-29.812,14.445
		c-6.058,2.937-13.422,1.185-17.51-4.167l-6.157-8.062c-2.172-2.845-6.089-3.776-9.309-2.216l-29.809,14.444
		c-6.06,2.938-13.424,1.184-17.511-4.169l-6.152-8.058c-2.173-2.846-6.088-3.778-9.31-2.216L237.88,210.44
		c-6.06,2.937-13.426,1.184-17.512-4.17l-6.149-8.054c-2.173-2.846-6.089-3.777-9.31-2.217l-29.806,14.443
		c-6.058,2.936-13.424,1.184-17.511-4.168l-11.554-15.132l5.295-4.043l11.554,15.132c2.174,2.846,6.09,3.777,9.311,2.216
		l29.805-14.443c6.06-2.938,13.426-1.182,17.511,4.17l6.149,8.054c2.172,2.847,6.089,3.781,9.311,2.217l29.802-14.442
		c6.06-2.938,13.425-1.184,17.511,4.169l6.152,8.058c2.174,2.846,6.088,3.776,9.311,2.216l29.809-14.444
		c6.059-2.936,13.424-1.184,17.51,4.167l6.157,8.062c2.174,2.846,6.09,3.777,9.309,2.216l29.812-14.445
		c6.059-2.935,13.423-1.182,17.51,4.168l6.157,8.062c2.173,2.846,6.088,3.777,9.309,2.216l29.816-14.446
		c6.058-2.937,13.422-1.182,17.507,4.166l11.563,15.136L476.914,213.348z"/>
	<path style="fill:#E9E4D8;" d="M476.914,264.423l-11.563-15.136c-2.173-2.844-6.086-3.775-9.309-2.215l-29.816,14.446
		c-6.058,2.937-13.423,1.182-17.509-4.168l-6.157-8.062c-2.173-2.845-6.087-3.777-9.31-2.216l-29.812,14.445
		c-6.058,2.937-13.422,1.184-17.51-4.167l-6.157-8.062c-2.172-2.845-6.089-3.776-9.309-2.216l-29.809,14.444
		c-6.06,2.938-13.424,1.184-17.511-4.169l-6.152-8.058c-2.173-2.846-6.088-3.778-9.31-2.216l-29.802,14.442
		c-6.06,2.938-13.426,1.182-17.512-4.17l-6.149-8.054c-2.173-2.846-6.089-3.777-9.31-2.217l-29.806,14.443
		c-6.058,2.936-13.424,1.184-17.511-4.168l-11.554-15.132l5.295-4.043l11.554,15.132c2.174,2.846,6.09,3.777,9.311,2.216
		l29.805-14.443c6.06-2.939,13.426-1.182,17.511,4.17l6.149,8.054c2.172,2.847,6.089,3.781,9.311,2.217l29.802-14.442
		c6.06-2.938,13.425-1.184,17.511,4.169l6.152,8.058c2.174,2.846,6.088,3.776,9.311,2.216l29.809-14.444
		c6.059-2.935,13.424-1.184,17.51,4.167l6.157,8.062c2.174,2.846,6.09,3.777,9.309,2.216l29.812-14.445
		c6.059-2.936,13.423-1.182,17.51,4.168l6.157,8.062c2.173,2.846,6.088,3.778,9.309,2.216l29.816-14.446
		c6.058-2.937,13.422-1.182,17.507,4.166l11.563,15.136L476.914,264.423z"/>
</g>
<g>
</g>
<g>
</g>
<g>
</g>
<g>
</g>
<g>
</g>
<g>
</g>
<g>
</g>
<g>
</g>
<g>
</g>
<g>
</g>
<g>
</g>
<g>
</g>
<g>
</g>
<g>
</g>
<g>
</g>
</svg>
